<svg xmlns="http://www.w3.org/2000/svg" width="25.579" height="19.185" viewBox="0 0 25.579 19.185">
  <path id="image-light" d="M23.181,64H2.4A2.4,2.4,0,0,0,0,66.4V80.787a2.4,2.4,0,0,0,2.4,2.4H23.181a2.4,2.4,0,0,0,2.4-2.4V66.4A2.4,2.4,0,0,0,23.181,64Zm.8,16.787a.8.8,0,0,1-.8.8H2.4a.8.8,0,0,1-.8-.8V66.4a.8.8,0,0,1,.8-.8H23.181a.8.8,0,0,1,.8.8ZM5.6,72.393a2.8,2.8,0,1,0-2.8-2.8A2.8,2.8,0,0,0,5.6,72.393Zm0-4a1.2,1.2,0,1,1-1.2,1.2A1.2,1.2,0,0,1,5.6,68.4Zm10.343,1.151-4.748,4.748-1.55-1.55a1.2,1.2,0,0,0-1.7,0l-4.4,4.4a1.2,1.2,0,0,0-.351.848v1.4a.6.6,0,0,0,.6.6H21.783a.6.6,0,0,0,.6-.6v-4.6a1.2,1.2,0,0,0-.351-.848l-4.4-4.4A1.2,1.2,0,0,0,15.939,69.547Zm4.845,8.841H4.8v-.234l4-4,2.4,2.4,5.6-5.6,4,4Z" transform="translate(0 -64)" fill="#818e94"/>
</svg>
