<svg xmlns="http://www.w3.org/2000/svg" width="16.707" height="18.123" viewBox="0 0 16.707 18.123">
  <path id="paperclip-light" d="M24.57,18.122a4.57,4.57,0,0,1-3.233-7.8l9.276-9.276a3.571,3.571,0,0,1,5.05,5.049l-7.88,7.88a2.569,2.569,0,0,1-3.633-3.633l6.028-6.028a.425.425,0,0,1,.6,0l.2.2a.425.425,0,0,1,0,.6L24.95,11.141a1.436,1.436,0,0,0,2.031,2.031l7.88-7.88a2.438,2.438,0,0,0-3.447-3.447l-9.276,9.276A3.439,3.439,0,0,0,27,15.984l7.707-7.707a.425.425,0,0,1,.6,0l.2.2a.425.425,0,0,1,0,.6L27.8,16.785A4.558,4.558,0,0,1,24.57,18.122Z" transform="translate(-20 0)" fill="#818e94"/>
</svg>
